<svg width="43" height="43" viewBox="0 0 43 43" fill="none" xmlns="http://www.w3.org/2000/svg">
<circle cx="21.5" cy="21.5" r="21.5" fill="#42C3FF" fill-opacity="0.15"/>
<path d="M24 11C26 11 27 12.01 27 14.03V21.08C27 23.07 25.59 23.84 23.86 22.8L22.54 22C22.24 21.82 21.76 21.82 21.46 22L20.14 22.8C18.41 23.84 17 23.07 17 21.08V14.03C17 12.01 18 11 20 11H24Z" stroke="#42C3FF" stroke-width="1.5" stroke-linecap="round" stroke-linejoin="round"/>
<path d="M16.82 13.99C13.41 14.56 12 16.66 12 20.9V23.93C12 28.98 14 31 19 31H25C30 31 32 28.98 32 23.93V20.9C32 16.59 30.54 14.48 27 13.96" stroke="#42C3FF" stroke-width="1.5" stroke-linecap="round" stroke-linejoin="round"/>
</svg>
