<svg width="136" height="136" viewBox="0 0 136 136" fill="none" xmlns="http://www.w3.org/2000/svg">
<g filter="url(#filter0_d_2_6626)">
<circle cx="68" cy="64" r="28" fill="white"/>
</g>
<path d="M65 74H71C76 74 78 72 78 67V61C78 56 76 54 71 54H65C60 54 58 56 58 61V67C58 72 60 74 65 74Z" stroke="#42C3FF" stroke-width="1.5" stroke-linecap="round" stroke-linejoin="round"/>
<path d="M68 67.5C69.933 67.5 71.5 65.933 71.5 64C71.5 62.067 69.933 60.5 68 60.5C66.067 60.5 64.5 62.067 64.5 64C64.5 65.933 66.067 67.5 68 67.5Z" stroke="#42C3FF" stroke-width="1.5" stroke-linecap="round" stroke-linejoin="round"/>
<path d="M73.6361 59H73.6477" stroke="#42C3FF" stroke-width="2" stroke-linecap="round" stroke-linejoin="round"/>
<defs>
<filter id="filter0_d_2_6626" x="0" y="0" width="136" height="136" filterUnits="userSpaceOnUse" color-interpolation-filters="sRGB">
<feFlood flood-opacity="0" result="BackgroundImageFix"/>
<feColorMatrix in="SourceAlpha" type="matrix" values="0 0 0 0 0 0 0 0 0 0 0 0 0 0 0 0 0 0 127 0" result="hardAlpha"/>
<feOffset dy="4"/>
<feGaussianBlur stdDeviation="20"/>
<feComposite in2="hardAlpha" operator="out"/>
<feColorMatrix type="matrix" values="0 0 0 0 0 0 0 0 0 0 0 0 0 0 0 0 0 0 0.04 0"/>
<feBlend mode="normal" in2="BackgroundImageFix" result="effect1_dropShadow_2_6626"/>
<feBlend mode="normal" in="SourceGraphic" in2="effect1_dropShadow_2_6626" result="shape"/>
</filter>
</defs>
</svg>
