<svg width="43" height="43" viewBox="0 0 43 43" fill="none" xmlns="http://www.w3.org/2000/svg">
<circle cx="21.5" cy="21.5" r="21.5" fill="white"/>
<path d="M28.63 16.1501C28.67 16.7601 28.62 17.4501 28.5 18.2201L27.77 22.9101C27.15 26.8201 25.34 28.1401 21.43 27.5301L16.74 26.7901C15.39 26.5801 14.35 26.2201 13.59 25.6801C12.14 24.6701 11.72 23.0101 12.12 20.4501L12.86 15.7601C13.48 11.8501 15.29 10.5301 19.2 11.1401L23.89 11.8801C27.03 12.3701 28.5 13.6501 28.63 16.1501Z" stroke="#42C3FF" stroke-width="1.5" stroke-linecap="round" stroke-linejoin="round"/>
<path d="M30.4998 22.4699L28.9998 26.9799C27.7498 30.7399 25.7498 31.7399 21.9898 30.4899L17.4798 28.9899C15.2098 28.2399 13.9498 27.1999 13.5898 25.6799C14.3498 26.2199 15.3898 26.5799 16.7398 26.7899L21.4298 27.5299C25.3398 28.1399 27.1498 26.8199 27.7698 22.9099L28.4998 18.2199C28.6198 17.4499 28.6698 16.7599 28.6298 16.1499C31.0198 17.4199 31.5398 19.3399 30.4998 22.4699Z" stroke="#42C3FF" stroke-width="1.5" stroke-linecap="round" stroke-linejoin="round"/>
<path d="M18.24 17.98C19.201 17.98 19.98 17.201 19.98 16.24C19.98 15.279 19.201 14.5 18.24 14.5C17.279 14.5 16.5 15.279 16.5 16.24C16.5 17.201 17.279 17.98 18.24 17.98Z" stroke="#42C3FF" stroke-width="1.5" stroke-linecap="round" stroke-linejoin="round"/>
</svg>
