<svg width="158" height="46" viewBox="0 0 158 46" fill="none" xmlns="http://www.w3.org/2000/svg">
<path d="M3.51258 9.84247H8.37041V31.8895H22.0471V36H3.51258V9.84247ZM44.01 26.1349C44.01 26.4587 43.9851 26.9196 43.9353 27.5175H28.2782C28.5522 28.9873 29.2622 30.1582 30.4081 31.0301C31.579 31.8771 33.0239 32.3006 34.7428 32.3006C36.935 32.3006 38.7412 31.5781 40.1611 30.1332L42.6648 33.0106C41.768 34.0818 40.6345 34.8914 39.2643 35.4395C37.8942 35.9875 36.3496 36.2616 34.6307 36.2616C32.4384 36.2616 30.5078 35.8256 28.8387 34.9537C27.1696 34.0818 25.8742 32.8736 24.9524 31.329C24.0556 29.7596 23.6072 27.9908 23.6072 26.0228C23.6072 24.0796 24.0431 22.3358 24.915 20.7913C25.8119 19.2218 27.045 18.0011 28.6145 17.1292C30.1839 16.2573 31.9527 15.8213 33.9207 15.8213C35.8638 15.8213 37.5952 16.2573 39.1148 17.1292C40.6594 17.9762 41.8552 19.1844 42.7022 20.7539C43.5741 22.2984 44.01 24.0921 44.01 26.1349ZM33.9207 19.5581C32.426 19.5581 31.1555 20.0065 30.1092 20.9034C29.0878 21.7753 28.465 22.9461 28.2408 24.416H39.5633C39.364 22.9711 38.7536 21.8002 37.7322 20.9034C36.7108 20.0065 35.4403 19.5581 33.9207 19.5581ZM55.5725 15.8213C58.5121 15.8213 60.7542 16.5313 62.2987 17.9513C63.8682 19.3464 64.6529 21.4639 64.6529 24.3038V36H60.2435V33.5711C59.6705 34.443 58.8484 35.1156 57.7772 35.589C56.7309 36.0374 55.4604 36.2616 53.9657 36.2616C52.4709 36.2616 51.1631 36.0125 50.042 35.5142C48.921 34.9911 48.0491 34.2811 47.4263 33.3842C46.8284 32.4625 46.5294 31.4287 46.5294 30.2827C46.5294 28.4891 47.1896 27.0566 48.5099 25.9854C49.8552 24.8893 51.9602 24.3412 54.8251 24.3412H59.9819V24.0423C59.9819 22.6472 59.5584 21.576 58.7114 20.8286C57.8893 20.0813 56.6561 19.7076 55.012 19.7076C53.8909 19.7076 52.7823 19.882 51.6862 20.2307C50.615 20.5795 49.7057 21.0653 48.9584 21.6881L47.1273 18.2876C48.1736 17.4904 49.4317 16.8801 50.9015 16.4566C52.3713 16.0331 53.9283 15.8213 55.5725 15.8213ZM54.9372 32.8611C56.1081 32.8611 57.1419 32.5995 58.0388 32.0764C58.9605 31.5283 59.6082 30.756 59.9819 29.7596V27.4428H55.1614C52.4709 27.4428 51.1257 28.3271 51.1257 30.0959C51.1257 30.9429 51.462 31.6155 52.1346 32.1137C52.8073 32.612 53.7415 32.8611 54.9372 32.8611ZM75.0943 18.9602C76.4395 16.8676 78.8062 15.8213 82.1942 15.8213V20.2681C81.7956 20.1934 81.4344 20.156 81.1105 20.156C79.292 20.156 77.872 20.6916 76.8506 21.7628C75.8292 22.8091 75.3185 24.3288 75.3185 26.3217V36H70.6475V16.0455H75.0943V18.9602ZM97.4791 15.8213C99.9952 15.8213 102.013 16.5562 103.533 18.026C105.052 19.4958 105.812 21.6756 105.812 24.5654V36H101.141V25.1633C101.141 23.4195 100.73 22.1116 99.908 21.2397C99.0859 20.3429 97.9151 19.8944 96.3954 19.8944C94.6765 19.8944 93.3188 20.4176 92.3223 21.4639C91.3259 22.4853 90.8276 23.9675 90.8276 25.9107V36H86.1566V16.0455H90.6034V18.6239C91.3757 17.7022 92.3473 17.0047 93.5181 16.5313C94.689 16.058 96.0093 15.8213 97.4791 15.8213ZM120.888 36.2616C118.87 36.2616 117.052 35.8256 115.433 34.9537C113.813 34.0818 112.543 32.8736 111.621 31.329C110.724 29.7596 110.276 27.9908 110.276 26.0228C110.276 24.0547 110.724 22.2984 111.621 20.7539C112.543 19.2094 113.813 18.0011 115.433 17.1292C117.052 16.2573 118.87 15.8213 120.888 15.8213C122.931 15.8213 124.762 16.2573 126.381 17.1292C128.001 18.0011 129.259 19.2094 130.156 20.7539C131.077 22.2984 131.538 24.0547 131.538 26.0228C131.538 27.9908 131.077 29.7596 130.156 31.329C129.259 32.8736 128.001 34.0818 126.381 34.9537C124.762 35.8256 122.931 36.2616 120.888 36.2616ZM120.888 32.2632C122.607 32.2632 124.027 31.6902 125.148 30.5443C126.269 29.3983 126.83 27.8912 126.83 26.0228C126.83 24.1544 126.269 22.6472 125.148 21.5013C124.027 20.3553 122.607 19.7823 120.888 19.7823C119.169 19.7823 117.749 20.3553 116.628 21.5013C115.532 22.6472 114.984 24.1544 114.984 26.0228C114.984 27.8912 115.532 29.3983 116.628 30.5443C117.749 31.6902 119.169 32.2632 120.888 32.2632Z" fill="black"/>
<circle cx="120.218" cy="5.96835" r="4.67099" fill="#42C3FF"/>
<circle cx="36.1407" cy="5.96835" r="4.67099" fill="#42C3FF"/>
</svg>
