<svg width="43" height="43" viewBox="0 0 43 43" fill="none" xmlns="http://www.w3.org/2000/svg">
<circle cx="21.5" cy="21.5" r="21.5" fill="#42C3FF" fill-opacity="0.15"/>
<path d="M20.05 11.5298L14.03 15.4598C12.1 16.7198 12.1 19.5398 14.03 20.7998L20.05 24.7298C21.13 25.4398 22.91 25.4398 23.99 24.7298L29.98 20.7998C31.9 19.5398 31.9 16.7298 29.98 15.4698L23.99 11.5398C22.91 10.8198 21.13 10.8198 20.05 11.5298Z" stroke="#42C3FF" stroke-width="1.5" stroke-linecap="round" stroke-linejoin="round"/>
<path d="M15.6301 22.0801L15.6201 26.7701C15.6201 28.0401 16.6001 29.4001 17.8001 29.8001L20.9901 30.8601C21.5401 31.0401 22.4501 31.0401 23.0101 30.8601L26.2001 29.8001C27.4001 29.4001 28.3801 28.0401 28.3801 26.7701V22.1301" stroke="#42C3FF" stroke-width="1.5" stroke-linecap="round" stroke-linejoin="round"/>
<path d="M31.3999 24V18" stroke="#42C3FF" stroke-width="1.5" stroke-linecap="round" stroke-linejoin="round"/>
</svg>
